<?xml version="1.0" standalone="no"?>
<!DOCTYPE svg PUBLIC "-//W3C//DTD SVG 20010904//EN"
 "http://www.w3.org/TR/2001/REC-SVG-20010904/DTD/svg10.dtd">
<svg version="1.0" xmlns="http://www.w3.org/2000/svg"
 width="400.000000pt" height="400.000000pt" viewBox="0 0 400.000000 400.000000"
 preserveAspectRatio="xMidYMid meet">
<metadata>
Created by potrace 1.11, written by Peter Selinger 2001-2013
</metadata>
<g transform="translate(0.000000,400.000000) scale(0.100000,-0.100000)"
fill="#000000" stroke="none">
<path d="M627 2884 c-22 -7 -38 -22 -52 -50 -20 -38 -20 -56 -20 -884 1 -925
-1 -890 60 -919 23 -11 96 -14 364 -14 362 0 412 3 520 33 290 81 514 318 594
629 l24 94 0 -319 c0 -176 3 -333 7 -350 4 -17 18 -42 32 -55 24 -23 33 -24
177 -27 177 -3 214 7 233 67 7 22 11 167 10 427 -1 217 1 394 4 394 3 0 14
-15 25 -32 10 -18 78 -123 150 -233 72 -110 171 -261 219 -335 152 -233 170
-258 195 -272 16 -9 66 -13 156 -13 119 0 135 2 155 20 12 11 27 31 32 45 13
34 13 1696 0 1730 -5 14 -20 34 -32 45 -20 18 -38 20 -177 22 -250 4 -244 13
-243 -365 1 -147 1 -325 0 -397 l0 -130 -66 100 c-36 55 -98 150 -137 210 -39
61 -74 112 -79 113 -4 2 -8 8 -8 12 0 14 -236 372 -273 415 l-35 40 -142 0
-142 0 -29 -33 c-16 -18 -29 -40 -30 -50 0 -9 -1 -163 -1 -341 l0 -325 -23 90
c-60 237 -206 437 -406 555 -53 31 -138 68 -172 75 -10 2 -26 5 -35 8 -77 23
-147 27 -495 29 -207 1 -339 -2 -360 -9z m743 -469 c137 -30 256 -161 293
-322 16 -69 14 -230 -3 -293 -32 -116 -106 -216 -200 -268 -74 -41 -99 -45
-282 -46 l-158 -2 0 471 0 470 158 -1 c86 0 173 -4 192 -9z"/>
</g>
</svg>
